<?xml version="1.0" encoding="UTF-8"?>
<svg id="Capa_2" data-name="Capa 2" xmlns="http://www.w3.org/2000/svg" viewBox="0 0 58 58">
  <defs>
    <style>
      .cls-1 {
        fill: #009056;
        fill-rule: evenodd;
        stroke-width: 0px;
      }
    </style>
  </defs>
  <g id="Capa_1-2" data-name="Capa 1">
    <path class="cls-1" d="M22.66,27.34c-1.57-1.57-4.18-1.57-5.75,0-1.57,1.57-1.57,4.18,0,5.75l6.48,6.48c1.57,1.57,4.18,1.57,5.75,0l12.96-12.96c1.57-1.57,1.57-4.18,0-5.75-1.57-1.57-4.18-1.57-5.75,0l-10.09,10.09-3.61-3.61ZM26.98,33.09l10.8-10.8c.78-.78,2.11-.78,2.9,0,.78.78.78,2.11,0,2.89l-12.96,12.96c-.78.78-2.11.78-2.9,0l-6.48-6.48c-.78-.78-.78-2.11,0-2.89.78-.78,2.11-.78,2.9,0l4.32,4.32c.39.39,1.03.39,1.43,0ZM33.07.3c-.55-.08-1.06.31-1.14.86-.08.55.31,1.06.86,1.14,13.06,1.8,23.19,13.06,23.19,26.7,0,14.86-12.12,26.98-26.98,26.98S2.02,43.86,2.02,29,14.04,2.02,29,2.02c.56,0,1.01-.45,1.01-1.01s-.45-1.01-1.01-1.01C12.92,0,0,13.03,0,29s12.92,29,29,29,29-13.02,29-29c0-14.65-10.89-26.76-24.93-28.7Z"/>
  </g>
</svg>