<?xml version="1.0" encoding="UTF-8"?>
<svg id="Capa_2" data-name="Capa 2" xmlns="http://www.w3.org/2000/svg" viewBox="0 0 18 182.15">
  <defs>
    <style>
      .cls-1 {
        fill: #7b7b7b;
        stroke-width: 0px;
      }
    </style>
  </defs>
  <g id="Capa_1-2" data-name="Capa 1">
    <path class="cls-1" d="M5.31,173.62l5.91,1.97-5.91,2.03v1.75l7.99-2.87v-1.73l-7.99-2.87v1.72ZM5.31,171.1h7.99v-1.63h-7.99v1.63ZM12.2,160.7h-3.18v3.5h1.34v-1.86h1.01c.19.25.35.53.49.88.12.34.2.68.2,1.02,0,.69-.24,1.23-.7,1.67-.49.43-1.19.63-2.14.63-.88,0-1.54-.19-1.99-.61-.46-.43-.69-.99-.69-1.7,0-.46.13-.86.36-1.17.21-.31.53-.52.92-.64l-.3-1.62c-.73.17-1.3.53-1.73,1.08-.41.56-.62,1.34-.62,2.33,0,.76.14,1.41.4,1.92.34.68.84,1.19,1.49,1.55.64.35,1.38.52,2.2.52s1.49-.15,2.13-.47c.66-.31,1.15-.79,1.51-1.39.35-.64.52-1.36.52-2.21,0-.66-.12-1.31-.36-1.96-.25-.64-.54-1.13-.87-1.47ZM5.31,159.23h7.99v-1.61h-7.99v1.61ZM5.36,154.39v1.62h7.93v-5.64h-1.35v4.02h-6.58ZM5.31,146.9l7.99,3.12v-1.72l-1.81-.67v-3.2l1.81-.71v-1.76l-7.99,3.21v1.73ZM10.14,144.94v2.19l-2.98-1.09,2.98-1.1ZM13.3,138.03c0-.59-.06-1.07-.17-1.43-.15-.48-.37-.86-.65-1.14-.36-.38-.82-.67-1.41-.86-.48-.16-1.03-.24-1.7-.24-.75,0-1.38.08-1.89.26-.51.17-.95.43-1.29.76-.35.34-.6.75-.73,1.22-.11.35-.16.86-.16,1.52v2.96h7.99v-3.05ZM11.95,139.47h-5.28v-.73c0-.66,0-1.1.07-1.34.08-.3.18-.55.38-.74.19-.19.44-.35.78-.45.32-.12.8-.16,1.43-.16s1.1.05,1.46.16c.35.1.6.25.76.41.16.17.27.38.33.66.06.19.08.52.08.97v1.21ZM9.32,125.52c-1.31,0-2.32.36-3.04,1.05-.73.73-1.1,1.66-1.1,2.85,0,.65.1,1.23.33,1.72.14.38.38.72.71,1.05.31.31.69.55,1.09.73.55.25,1.24.38,2.05.38,1.27,0,2.27-.36,2.99-1.06.73-.71,1.09-1.65,1.09-2.86s-.36-2.11-1.09-2.81c-.72-.72-1.73-1.05-3.02-1.05ZM11.36,130.99c-.47.43-1.16.64-2.06.64s-1.61-.2-2.08-.62c-.46-.4-.69-.94-.69-1.61s.23-1.2.69-1.6c.44-.41,1.13-.61,2.04-.61s1.63.2,2.09.62c.45.42.69.94.69,1.59s-.24,1.19-.69,1.59ZM0,182.15h1.73v-59.48H0v59.48ZM15.59,80c-.13-.17-.27-.33-.46-.47-.19-.14-.45-.25-.73-.35-.3-.09-.64-.14-1.03-.14-.46,0-.85.06-1.21.2-.35.14-.64.34-.87.61-.18.2-.29.45-.36.74-.05.21-.08.52-.08.92v1.75h5.08v-1.84c0-.3-.02-.59-.08-.82-.07-.24-.15-.43-.25-.61ZM15.33,82.59h-3.87v-1.08c0-.39.02-.7.09-.86.11-.25.3-.46.58-.65.27-.17.68-.26,1.21-.26.4,0,.73.04.98.14.28.08.49.2.65.37.11.11.21.27.27.46.06.19.09.45.09.8v1.08ZM15.33,77.43h-1.74v-2.82h-.59v2.82h-1.54v-3.02h-.61v3.7h5.08v-3.82h-.6v3.14ZM14.32,67.06l-.16.67c.43.1.74.28.96.54.21.26.33.58.33.96,0,.31-.07.6-.24.85-.17.28-.4.48-.73.6-.32.13-.69.19-1.13.19-.33,0-.65-.06-.96-.16-.32-.11-.57-.3-.77-.56-.18-.26-.27-.6-.27-.97,0-.35.08-.63.25-.85.17-.23.43-.4.8-.52l-.15-.67c-.47.14-.84.38-1.09.73-.26.34-.4.78-.4,1.29,0,.46.11.87.31,1.24.21.38.5.66.9.87.4.21.85.31,1.37.31s.96-.09,1.37-.27c.42-.18.75-.45.98-.79.21-.34.32-.79.32-1.34s-.14-.98-.42-1.35c-.3-.37-.71-.63-1.27-.77ZM14.78,61.87c-.4-.21-.88-.31-1.38-.31s-.95.09-1.37.28c-.4.21-.71.5-.94.88-.23.38-.33.8-.33,1.26,0,.74.23,1.31.72,1.77.47.45,1.13.68,1.97.68.45,0,.87-.1,1.28-.29.39-.19.72-.48.94-.86.23-.37.34-.8.34-1.28s-.1-.85-.32-1.25c-.2-.39-.51-.68-.91-.88ZM14.91,65.24c-.35.34-.84.51-1.44.51-.76,0-1.31-.16-1.64-.51-.32-.35-.48-.76-.48-1.24,0-.33.08-.63.25-.91.17-.27.41-.47.71-.62.32-.14.67-.21,1.08-.21.66,0,1.16.17,1.52.5.36.33.54.75.54,1.26s-.18.91-.53,1.23ZM15.92,57.52h-.6v2.52h-4.48v.68h5.08v-3.19ZM14.78,52.35c-.4-.22-.88-.31-1.38-.31s-.95.09-1.37.3c-.4.2-.71.49-.94.86-.23.38-.33.8-.33,1.27,0,.73.23,1.32.72,1.76.47.46,1.13.69,1.97.69.45,0,.87-.09,1.28-.29.39-.19.72-.48.94-.86.23-.39.34-.81.34-1.3,0-.42-.1-.86-.32-1.23-.2-.39-.51-.67-.91-.89ZM14.91,55.73c-.35.33-.84.5-1.44.5-.76,0-1.31-.17-1.64-.51-.32-.35-.48-.77-.48-1.25,0-.33.08-.63.25-.92.17-.26.41-.46.71-.61.32-.14.67-.21,1.08-.21.66,0,1.16.16,1.52.49.36.33.54.76.54,1.26s-.18.91-.53,1.24ZM15.92,50.53h-4.31l4.31-1.47v-.61l-4.24-1.48h4.24v-.66h-5.08v.91l3.54,1.22c.36.13.64.21.83.27-.17.05-.43.14-.76.24l-3.6,1.21v1.02h5.08v-.66ZM15.92,43.31c0-.31-.02-.6-.08-.82-.05-.23-.15-.42-.25-.56-.11-.15-.27-.25-.47-.37-.2-.11-.42-.17-.66-.17-.29,0-.55.11-.76.27-.22.16-.38.4-.47.7-.11-.23-.25-.41-.46-.54-.2-.1-.4-.17-.61-.17-.24,0-.46.06-.68.19-.21.14-.38.32-.48.55-.09.25-.16.55-.16.95v1.91h5.08v-1.96ZM12.98,44.59h-1.52v-1.03c0-.37,0-.63.06-.78.05-.15.13-.27.26-.35.14-.08.29-.12.45-.12.18,0,.32.05.44.14.12.08.2.21.25.38.05.13.06.34.06.63v1.12ZM15.33,44.59h-1.75v-1.2c0-.32.03-.57.09-.74.05-.16.15-.3.29-.39.13-.11.31-.16.49-.16.17,0,.31.03.43.1.13.07.21.15.28.26.06.1.11.24.14.39.01.09.02.25.02.46v1.29ZM15.92,39.69h-5.08v.67h5.08v-.67ZM15.92,38.34l-1.53-.56v-2.14l1.53-.6v-.76l-5.08,2.08v.73l5.08,1.96v-.71ZM13.85,37.59l-1.48-.57c-.33-.11-.64-.21-.97-.26.27-.08.62-.21,1.06-.37l1.4-.53v1.74ZM5.57,114.5c.12-.09.25-.13.41-.13s.3.05.44.14c.12.1.23.24.31.44.08.19.11.44.11.69,0,.28-.05.55-.16.78-.09.22-.23.4-.4.51-.16.11-.37.18-.63.21l.05.63c.35,0,.66-.09.93-.28.26-.16.46-.42.59-.72.14-.32.21-.71.21-1.18,0-.36-.07-.68-.21-.98-.13-.3-.33-.52-.56-.67-.24-.15-.49-.23-.76-.23s-.51.07-.73.21c-.21.15-.39.37-.52.66-.08.2-.19.58-.32,1.13-.12.56-.25.89-.36,1.03-.12.13-.26.19-.45.19-.2,0-.39-.08-.54-.27-.14-.2-.23-.5-.23-.9s.09-.69.27-.89c.15-.2.4-.33.71-.35l-.05-.66c-.29.02-.57.09-.79.25-.24.15-.43.37-.54.67-.12.29-.18.63-.18,1,0,.34.06.66.17.94.12.28.28.49.51.64.21.14.47.22.73.22.23,0,.44-.06.61-.18.21-.12.35-.3.5-.54.09-.18.2-.51.31-.99.11-.47.2-.77.25-.9.08-.22.17-.37.3-.47ZM6.19,111.98c-.21.09-.54.13-.98.13h-2.93v.67h2.93c.53,0,.95-.08,1.26-.19.33-.14.56-.36.72-.66.15-.3.25-.69.25-1.17s-.09-.9-.29-1.2c-.18-.3-.42-.5-.72-.62-.31-.11-.73-.17-1.22-.17h-2.93v.67h2.93c.64,0,1.06.1,1.3.32.22.21.33.56.33,1.05,0,.3-.07.55-.18.74-.11.21-.27.34-.48.43ZM2.28,107.64h5.07v-.67h-2.07v-1.3c0-.74-.15-1.23-.44-1.51-.31-.28-.67-.42-1.11-.42-.24,0-.47.06-.68.16-.21.11-.38.23-.5.4-.11.16-.2.38-.24.63-.03.19-.05.45-.05.77v1.94ZM2.87,105.67c0-.31.02-.53.05-.64.06-.18.15-.33.3-.43.15-.1.32-.15.54-.15.3,0,.53.08.69.26.17.19.24.51.24.95v1.33h-1.82v-1.3ZM2.28,102.87h5.07v-3.82h-.6v3.14h-1.73v-2.82h-.59v2.82h-1.56v-3.02h-.59v3.7ZM2.28,98.11h5.07v-.67h-2.26v-.78c0-.18.01-.3.02-.38.03-.11.07-.21.14-.31.06-.09.17-.21.33-.34.17-.12.4-.29.7-.49l1.05-.68v-.84l-1.38.88c-.28.19-.5.37-.67.57-.09.09-.17.23-.26.4-.07-.49-.22-.85-.48-1.09-.24-.24-.55-.34-.91-.34-.28,0-.53.07-.76.2-.23.15-.4.33-.49.57-.09.25-.14.58-.14,1.04v2.26ZM2.84,95.82c0-.38.08-.66.23-.83.15-.18.35-.27.59-.27.17,0,.32.05.47.14.12.08.23.22.3.4.07.18.09.42.09.73v1.45h-1.68v-1.61ZM2.28,92.86h5.07v-.67H2.28v.67ZM2.28,91h5.07v-.65h-3.98l3.98-2.68v-.69H2.28v.66h3.99l-3.99,2.67v.7ZM2.28,86.23h.59v-1.68h4.48v-.68H2.87v-1.69h-.59v4.05ZM2.28,81.47h5.07v-3.8h-.6v3.13h-1.73v-2.82h-.59v2.82h-1.56v-3.01h-.59v3.68ZM2.28,76.75h5.07v-.66h-3.98l3.98-2.68v-.7H2.28v.65h3.99l-3.99,2.68v.71ZM2.28,71.58h5.07v-1.85c0-.29-.03-.58-.07-.82-.07-.24-.16-.44-.26-.6-.12-.17-.27-.32-.45-.47-.21-.15-.45-.26-.75-.35-.3-.08-.64-.14-1.02-.14-.46,0-.85.07-1.21.21-.35.12-.65.33-.87.6-.17.21-.3.46-.35.74-.06.22-.08.52-.08.92v1.75ZM2.87,69.83c0-.39.04-.69.12-.87.08-.27.29-.47.55-.64.29-.18.71-.27,1.24-.27.38,0,.71.04.99.14.25.09.46.21.63.38.12.11.2.26.27.46.07.18.09.45.09.79v1.09h-3.88v-1.08ZM2.28,66.41h5.07v-3.8h-.6v3.13h-1.73v-2.82h-.59v2.82h-1.56v-3.02h-.59v3.69ZM2.28,61.68h5.07v-.64h-3.98l3.98-2.69v-.68H2.28v.63h3.99l-3.99,2.68v.7ZM3.4,56.41c.38.2.86.31,1.39.31.48,0,.93-.09,1.36-.27.43-.18.75-.45.97-.79.22-.35.34-.79.34-1.35,0-.54-.15-.98-.45-1.34-.27-.37-.7-.64-1.25-.77l-.17.68c.43.09.75.27.96.53.23.26.34.58.34.95,0,.31-.08.61-.25.88-.16.27-.39.45-.72.59-.31.13-.7.19-1.13.19-.34,0-.66-.05-.97-.16-.33-.11-.57-.29-.76-.55-.19-.27-.28-.59-.28-.99,0-.33.08-.62.26-.85.17-.22.43-.39.81-.5l-.16-.67c-.47.14-.83.37-1.08.72-.27.35-.4.78-.4,1.29,0,.45.1.86.31,1.24.19.38.49.67.89.86ZM2.28,51.26h5.07v-.67H2.28v.67ZM7.36,45.94v-.76l-5.07,2.08v.73l5.07,1.96v-.73l-1.54-.56v-2.13l1.54-.59ZM5.27,48.48l-1.49-.56c-.32-.12-.64-.21-.96-.27.27-.08.62-.21,1.04-.37l1.42-.53v1.73ZM7.36,41.95h-2.31v-2.4h-.6v2.4h-1.58v-2.78h-.59v3.45h5.07v-.66ZM7.36,37.5H2.28v.68h5.07v-.68ZM7.36,32.3H2.28v.65h3.99l-3.99,2.68v.68h5.07v-.64h-3.98l3.98-2.66v-.71ZM7.36,27.71v-.76l-5.07,2.09v.73l5.07,1.95v-.72l-1.54-.55v-2.14l1.54-.6ZM5.27,30.26l-1.49-.56c-.32-.13-.64-.21-.96-.29.27-.07.62-.2,1.04-.37l1.42-.52v1.73ZM7.36,22.39H2.28v.65h3.99l-3.99,2.69v.69h5.07v-.66h-3.98l3.98-2.68v-.69ZM3.4,21.15c.38.2.86.31,1.39.31.48,0,.93-.1,1.36-.28.43-.18.75-.44.97-.79.22-.34.34-.8.34-1.34,0-.54-.15-.99-.45-1.35-.27-.37-.7-.63-1.25-.76l-.17.67c.43.09.75.27.96.53.23.27.34.58.34.97,0,.31-.08.6-.25.86-.16.27-.39.47-.72.6-.31.12-.7.19-1.13.19-.34,0-.66-.06-.97-.16-.33-.11-.57-.29-.76-.56-.19-.26-.28-.6-.28-.98,0-.34.08-.63.26-.85.17-.23.43-.4.81-.51l-.16-.67c-.47.13-.83.38-1.08.73-.27.35-.4.78-.4,1.3,0,.46.1.86.31,1.23.19.38.49.67.89.87ZM7.36,15.31H2.28v.69h5.07v-.69ZM7.36,10.3h-.6v3.13h-1.73v-2.82h-.59v2.82h-1.56v-3.01h-.59v3.69h5.07v-3.81ZM7.36,8.68h-2.26v-.78c0-.17.01-.3.02-.37.03-.12.07-.21.14-.32.06-.1.17-.21.33-.33.17-.14.4-.3.7-.5l1.05-.68v-.86l-1.38.9c-.28.17-.5.36-.67.56-.09.09-.17.22-.26.4-.07-.49-.22-.85-.48-1.08-.24-.25-.55-.35-.91-.35-.28,0-.53.06-.76.2-.23.15-.4.34-.49.58-.09.23-.14.58-.14,1.04v2.26h5.07v-.68ZM4.52,8.68h-1.68v-1.61c0-.39.08-.65.23-.85.15-.16.35-.25.59-.25.17,0,.32.05.47.13.12.1.23.23.3.39.07.17.09.43.09.73v1.45ZM7.36,4.07l-1.54-.56V1.37l1.54-.6v-.77L2.28,2.1v.73l5.07,1.96v-.71ZM5.27,3.31l-1.49-.56c-.32-.12-.64-.21-.96-.28.27-.08.62-.18,1.04-.35l1.42-.54v1.74ZM16.28,122.66v59.48h1.72v-59.48h-1.72Z"/>
  </g>
</svg>