<?xml version="1.0" encoding="UTF-8"?>
<svg xmlns="http://www.w3.org/2000/svg" xmlns:xlink="http://www.w3.org/1999/xlink" viewBox="0 0 404.16 748.41">
  <defs>
    <style>
      .cls-1 {
        fill: #957e6c;
        opacity: .73;
      }

      .cls-1, .cls-2, .cls-3, .cls-4, .cls-5, .cls-6, .cls-7, .cls-8, .cls-9, .cls-10, .cls-11, .cls-12, .cls-13, .cls-14, .cls-15, .cls-16, .cls-17, .cls-18, .cls-19, .cls-20, .cls-21, .cls-22, .cls-23, .cls-24, .cls-25, .cls-26, .cls-27, .cls-28, .cls-29, .cls-30, .cls-31, .cls-32, .cls-33, .cls-34, .cls-35, .cls-36, .cls-37, .cls-38, .cls-39, .cls-40, .cls-41, .cls-42, .cls-43, .cls-44, .cls-45, .cls-46, .cls-47, .cls-48, .cls-49, .cls-50, .cls-51, .cls-52, .cls-53, .cls-54, .cls-55, .cls-56 {
        stroke-width: 0px;
      }

      .cls-2 {
        fill: #e2dcd7;
        opacity: .2;
      }

      .cls-3 {
        fill: #e0d9d3;
        opacity: .22;
      }

      .cls-4 {
        fill: #c9bdb3;
        opacity: .37;
      }

      .cls-5 {
        fill: #927a68;
        opacity: .75;
      }

      .cls-6 {
        fill: #988170;
        opacity: .71;
      }

      .cls-7 {
        fill: #cbc0b7;
        opacity: .35;
      }

      .cls-57 {
        letter-spacing: 0em;
      }

      .cls-58 {
        letter-spacing: -.02em;
      }

      .cls-8 {
        fill: #8c7360;
        opacity: .78;
      }

      .cls-9 {
        fill: #f6f5f3;
        opacity: .06;
      }

      .cls-10 {
        fill: #c6b9af;
        opacity: .39;
      }

      .cls-11 {
        fill: #8f7764;
        opacity: .76;
      }

      .cls-12 {
        fill: #e5e0db;
        opacity: .18;
      }

      .cls-13 {
        fill: #eeeae7;
        opacity: .12;
      }

      .cls-14 {
        fill: #c3b6ab;
        opacity: .41;
      }

      .cls-15 {
        fill: #c0b2a7;
        opacity: .43;
      }

      .cls-16 {
        fill: #816550;
        opacity: .86;
      }

      .cls-17 {
        fill: #876c58;
        opacity: .82;
      }

      .cls-18 {
        fill: #baab9f;
        opacity: .47;
      }

      .cls-19 {
        fill: url(#Degradado_sin_nombre_605);
        opacity: .3;
      }

      .cls-20 {
        fill: #8a705c;
        opacity: .8;
      }

      .cls-21 {
        fill: #846954;
        opacity: .84;
      }

      .cls-22 {
        fill: #7b5e48;
        opacity: .9;
      }

      .cls-23 {
        fill: #785b44;
        opacity: .92;
      }

      .cls-59 {
        font-size: 8.39px;
      }

      .cls-59, .cls-29, .cls-60 {
        opacity: .5;
      }

      .cls-59, .cls-29, .cls-60, .cls-49 {
        fill: #bcc2c9;
      }

      .cls-59, .cls-60 {
        font-family: Roboto-Bold, Roboto;
        font-weight: 700;
      }

      .cls-24 {
        fill: #bdafa3;
        opacity: .45;
      }

      .cls-25 {
        fill: #e8e3df;
        opacity: .16;
      }

      .cls-26 {
        fill: #7e624c;
        opacity: .88;
      }

      .cls-27 {
        fill: #705038;
        opacity: .98;
      }

      .cls-28 {
        fill: #f1eeeb;
        opacity: .1;
      }

      .cls-30 {
        fill: #b7a89b;
        opacity: .49;
      }

      .cls-31 {
        fill: #73543c;
        opacity: .96;
      }

      .cls-32 {
        fill: #765740;
        opacity: .94;
      }

      .cls-33 {
        fill: #dad2cb;
        opacity: .25;
      }

      .cls-34 {
        fill: #af9d90;
        opacity: .55;
      }

      .cls-35 {
        fill: #d7cec7;
        opacity: .27;
      }

      .cls-36 {
        fill: #ebe7e3;
        opacity: .14;
      }

      .cls-37 {
        fill: #b5a498;
        opacity: .51;
      }

      .cls-38 {
        fill: #fcfcfb;
        opacity: .02;
      }

      .cls-39 {
        fill: #b2a194;
        opacity: .53;
      }

      .cls-61 {
        isolation: isolate;
      }

      .cls-40 {
        fill: #a69384;
        opacity: .61;
      }

      .cls-41 {
        fill: #d1c7bf;
        opacity: .31;
      }

      .cls-42 {
        fill: #a38f80;
        opacity: .63;
      }

      .cls-43 {
        fill: #f9f8f7;
        opacity: .04;
      }

      .cls-60 {
        font-size: 13.66px;
      }

      .cls-44 {
        fill: #ddd5cf;
        opacity: .24;
      }

      .cls-45 {
        fill: #ac9a8c;
        opacity: .57;
      }

      .cls-62 {
        mix-blend-mode: multiply;
        opacity: .4;
      }

      .cls-46 {
        fill: #cec4bb;
        opacity: .33;
      }

      .cls-47 {
        opacity: 0;
      }

      .cls-47, .cls-50 {
        fill: #fff;
      }

      .cls-48 {
        fill: #6d4d34;
      }

      .cls-51 {
        fill: #d4cbc3;
        opacity: .29;
      }

      .cls-52 {
        fill: #a99688;
        opacity: .59;
      }

      .cls-53 {
        fill: #f4f1ef;
        opacity: .08;
      }

      .cls-54 {
        fill: #9e8878;
        opacity: .67;
      }

      .cls-55 {
        fill: #9b8574;
        opacity: .69;
      }

      .cls-56 {
        fill: #a18c7c;
        opacity: .65;
      }
    </style>
    <linearGradient id="Degradado_sin_nombre_605" data-name="Degradado sin nombre 605" x1="196" y1="-36.61" x2="187.16" y2="843.66" gradientUnits="userSpaceOnUse">
      <stop offset=".48" stop-color="#cfedd5"/>
      <stop offset=".85" stop-color="#c2e3e0"/>
      <stop offset=".97" stop-color="#bde0e5"/>
    </linearGradient>
  </defs>
  <g class="cls-61">
    <g id="Capa_2" data-name="Capa 2">
      <g id="device">
        <g>
          <g class="cls-62">
            <path class="cls-47" d="M345.15.14L59.43,0C26.83-.02.38,26.04.36,58.19L0,690.01c-.02,32.16,26.36,58.24,58.97,58.26,73.09.04,212.72.11,285.81.15,32.61.02,59.02-26.04,59.04-58.19l.35-631.82c.02-32.16-26.4-58.24-59.01-58.26Z"/>
            <path class="cls-38" d="M344.55.4L59.91.27C27.4.25,1.03,26.26,1.01,58.36l-.36,630.49c-.02,32.1,26.29,58.14,58.8,58.15,72.88.04,211.85.11,284.73.15,32.51.02,58.85-25.99,58.87-58.09l.34-630.5c.02-32.1-26.33-58.14-58.84-58.15Z"/>
            <path class="cls-43" d="M343.95.67L60.39.53C27.97.52,1.68,26.48,1.66,58.52l-.36,629.18c-.02,32.04,26.21,58.03,58.63,58.05,72.68.04,210.98.11,283.65.15,32.42.02,58.68-25.94,58.7-57.98l.34-629.19c.02-32.04-26.25-58.03-58.67-58.05Z"/>
            <path class="cls-9" d="M343.35.94L60.87.8C28.54.78,2.32,26.7,2.3,58.68l-.36,627.86c-.02,31.98,26.14,57.93,58.46,57.94,72.47.04,210.11.11,282.57.15,32.33.02,58.51-25.9,58.53-57.88l.34-627.87c.02-31.98-26.18-57.93-58.51-57.94Z"/>
            <path class="cls-53" d="M342.76,1.21l-281.4-.14C29.12,1.05,2.97,26.92,2.95,58.84l-.36,626.54c-.02,31.93,26.06,57.82,58.3,57.84,72.26.04,209.23.11,281.49.15,32.24.02,58.35-25.85,58.36-57.78l.34-626.55c.02-31.93-26.1-57.82-58.34-57.84Z"/>
            <path class="cls-28" d="M342.16,1.47l-280.33-.14C29.69,1.32,3.62,27.14,3.6,59l-.36,625.22c-.02,31.87,25.99,57.72,58.13,57.73,72.05.04,208.36.11,280.42.15,32.14.02,58.18-25.8,58.19-57.67l.34-625.23c.02-31.87-26.03-57.72-58.17-57.73Z"/>
            <path class="cls-13" d="M341.56,1.74l-279.25-.14C30.26,1.59,4.27,27.36,4.25,59.17l-.35,623.9c-.02,31.81,25.91,57.61,57.96,57.63,71.84.04,207.49.11,279.34.15,32.05.02,58.01-25.76,58.03-57.57l.34-623.91c.02-31.81-25.95-57.61-58-57.63Z"/>
            <path class="cls-36" d="M340.96,2.01l-278.17-.14c-31.96-.02-57.88,25.71-57.89,57.46l-.35,622.58c-.02,31.75,25.84,57.51,57.79,57.52,71.64.04,206.62.11,278.26.15,31.96.02,57.84-25.71,57.86-57.46l.34-622.59c.02-31.75-25.88-57.51-57.83-57.52Z"/>
            <path class="cls-25" d="M340.36,2.27l-277.09-.14c-31.86-.02-57.71,25.66-57.73,57.35l-.35,621.26c-.02,31.69,25.76,57.4,57.63,57.42,71.43.04,205.75.11,277.18.15,31.86.02,57.67-25.66,57.69-57.36l.34-621.28c.02-31.69-25.8-57.4-57.67-57.42Z"/>
            <path class="cls-12" d="M339.76,2.54l-276.01-.14c-31.77-.02-57.54,25.61-57.56,57.25l-.35,619.95c-.02,31.64,25.69,57.3,57.46,57.31,71.22.04,204.88.11,276.1.15,31.77.02,57.51-25.61,57.52-57.25l.34-619.96c.02-31.64-25.73-57.3-57.5-57.31Z"/>
            <path class="cls-2" d="M339.16,2.81l-274.93-.14c-31.68-.02-57.37,25.57-57.39,57.14l-.35,618.63c-.02,31.58,25.61,57.19,57.29,57.21,71.01.04,204.01.11,275.02.15,31.68.02,57.34-25.57,57.35-57.15l.34-618.64c.02-31.58-25.65-57.19-57.33-57.21Z"/>
            <path class="cls-3" d="M338.57,3.07l-273.85-.14c-31.58-.02-57.2,25.52-57.22,57.04l-.35,617.31c-.02,31.52,25.54,57.09,57.12,57.1,70.8.04,203.14.11,273.94.15,31.59.02,57.17-25.52,57.19-57.04l.33-617.32c.02-31.52-25.58-57.09-57.16-57.1Z"/>
            <path class="cls-44" d="M337.97,3.34l-272.78-.14c-31.49-.02-57.04,25.47-57.05,56.93l-.35,615.99c-.02,31.46,25.46,56.98,56.95,57,70.6.04,202.27.11,272.86.15,31.49.02,57-25.47,57.02-56.94l.33-616c.02-31.46-25.5-56.98-56.99-57Z"/>
            <path class="cls-33" d="M337.37,3.61l-271.7-.13c-31.4-.02-56.87,25.43-56.89,56.83l-.35,614.67c-.02,31.4,25.39,56.88,56.79,56.89,70.39.04,201.4.11,271.79.15,31.4.02,56.83-25.43,56.85-56.83l.33-614.68c.02-31.4-25.42-56.88-56.83-56.89Z"/>
            <path class="cls-35" d="M336.77,3.87l-270.62-.13c-31.31-.02-56.7,25.38-56.72,56.72l-.35,613.35c-.02,31.35,25.31,56.77,56.62,56.79,70.18.04,200.53.11,270.71.15,31.31.02,56.67-25.38,56.68-56.73l.33-613.36c.02-31.35-25.35-56.77-56.66-56.79Z"/>
            <path class="cls-51" d="M336.17,4.14l-269.54-.13c-31.21-.02-56.53,25.33-56.55,56.62l-.35,612.04c-.02,31.29,25.24,56.67,56.45,56.68,69.97.04,199.66.11,269.63.15,31.22.02,56.5-25.33,56.51-56.62l.33-612.05c.02-31.29-25.27-56.67-56.49-56.68Z"/>
            <path class="cls-41" d="M335.57,4.41l-268.46-.13c-31.12-.02-56.36,25.29-56.38,56.52l-.34,610.72c-.02,31.23,25.16,56.56,56.28,56.58,69.76.04,198.79.11,268.55.15,31.12.02,56.33-25.29,56.35-56.52l.33-610.73c.02-31.23-25.2-56.56-56.32-56.58Z"/>
            <path class="cls-46" d="M334.97,4.67l-267.38-.13c-31.03-.02-56.2,25.24-56.21,56.41l-.34,609.4c-.02,31.17,25.09,56.46,56.11,56.47,69.56.04,197.91.11,267.47.15,31.03.02,56.16-25.24,56.18-56.41l.33-609.41c.02-31.17-25.12-56.46-56.15-56.47Z"/>
            <path class="cls-7" d="M334.38,4.94l-266.3-.13c-30.94-.02-56.03,25.19-56.04,56.31l-.34,608.08c-.02,31.11,25.01,56.35,55.95,56.37,69.35.04,197.04.11,266.39.15,30.94.02,55.99-25.19,56.01-56.31l.33-608.09c.02-31.11-25.05-56.35-55.99-56.37Z"/>
            <path class="cls-4" d="M333.78,5.21l-265.23-.13c-30.84-.02-55.86,25.15-55.88,56.2l-.34,606.76c-.02,31.06,24.94,56.25,55.78,56.26,69.14.04,196.17.1,265.31.14,30.84.02,55.83-25.15,55.84-56.2l.33-606.77c.02-31.06-24.97-56.25-55.82-56.26Z"/>
            <path class="cls-10" d="M333.18,5.47l-264.15-.13c-30.75-.02-55.69,25.1-55.71,56.1l-.34,605.44c-.02,31,24.86,56.14,55.61,56.16,68.93.04,195.3.1,264.23.14,30.75.02,55.66-25.1,55.67-56.1l.33-605.45c.02-31-24.9-56.14-55.65-56.16Z"/>
            <path class="cls-14" d="M332.58,5.74l-263.07-.13c-30.66-.02-55.52,25.05-55.54,55.99l-.34,604.12c-.02,30.94,24.79,56.04,55.44,56.05,68.72.04,194.43.1,263.16.14,30.66.02,55.49-25.05,55.51-55.99l.33-604.13c.02-30.94-24.82-56.04-55.48-56.05Z"/>
            <path class="cls-15" d="M331.98,6.01l-261.99-.13c-30.56-.02-55.35,25-55.37,55.89l-.34,602.81c-.02,30.88,24.71,55.93,55.28,55.95,68.52.04,193.56.1,262.08.14,30.57.02,55.32-25,55.34-55.89l.32-602.82c.02-30.88-24.75-55.93-55.31-55.95Z"/>
            <path class="cls-24" d="M331.38,6.27l-260.91-.13c-30.47-.02-55.19,24.96-55.2,55.78l-.34,601.49c-.02,30.82,24.64,55.83,55.11,55.84,68.31.04,192.69.1,261,.14,30.47.02,55.15-24.96,55.17-55.78l.32-601.5c.02-30.83-24.67-55.83-55.15-55.84Z"/>
            <path class="cls-18" d="M330.78,6.54l-259.83-.13c-30.38-.02-55.02,24.91-55.04,55.68l-.34,600.17c-.02,30.77,24.56,55.72,54.94,55.74,68.1.04,191.82.1,259.92.14,30.38.02,54.99-24.91,55-55.68l.32-600.18c.02-30.77-24.6-55.72-54.98-55.74Z"/>
            <path class="cls-30" d="M330.19,6.81l-258.76-.13c-30.29-.02-54.85,24.86-54.87,55.57l-.34,598.85c-.02,30.71,24.49,55.62,54.77,55.63,67.89.04,190.95.1,258.84.14,30.29.02,54.82-24.86,54.83-55.57l.32-598.86c.02-30.71-24.52-55.62-54.81-55.63Z"/>
            <path class="cls-37" d="M329.59,7.07l-257.68-.13c-30.19-.02-54.68,24.82-54.7,55.47l-.33,597.53c-.02,30.65,24.41,55.51,54.6,55.53,67.68.04,190.08.1,257.76.14,30.19.02,54.65-24.82,54.67-55.47l.32-597.54c.02-30.65-24.45-55.51-54.64-55.53Z"/>
            <path class="cls-39" d="M328.99,7.34l-256.6-.13c-30.1-.02-54.51,24.77-54.53,55.36l-.33,596.21c-.02,30.59,24.33,55.41,54.44,55.42,67.48.04,189.21.1,256.68.14,30.1.02,54.48-24.77,54.5-55.36l.32-596.22c.02-30.59-24.37-55.41-54.47-55.42Z"/>
            <path class="cls-34" d="M328.39,7.61l-255.52-.13c-30.01-.02-54.35,24.72-54.36,55.26l-.33,594.9c-.02,30.53,24.26,55.3,54.27,55.32,67.27.04,188.34.1,255.6.14,30.01.02,54.31-24.72,54.33-55.26l.32-594.91c.02-30.54-24.3-55.3-54.31-55.32Z"/>
            <path class="cls-45" d="M327.79,7.87l-254.44-.13c-29.91-.02-54.18,24.68-54.2,55.15l-.33,593.58c-.02,30.48,24.18,55.2,54.1,55.21,67.06.04,187.47.1,254.53.14,29.92.02,54.15-24.68,54.16-55.15l.32-593.59c.02-30.48-24.22-55.2-54.14-55.21Z"/>
            <path class="cls-52" d="M327.19,8.14l-253.36-.13c-29.82-.02-54.01,24.63-54.03,55.05l-.33,592.26c-.02,30.42,24.11,55.09,53.93,55.11,66.85.04,186.59.1,253.45.14,29.82.02,53.98-24.63,53.99-55.05l.32-592.27c.02-30.42-24.15-55.09-53.97-55.11Z"/>
            <path class="cls-40" d="M326.59,8.41l-252.28-.13c-29.73-.02-53.84,24.58-53.86,54.94l-.33,590.94c-.02,30.36,24.03,54.99,53.77,55,66.64.04,185.72.1,252.37.14,29.73.02,53.81-24.58,53.83-54.94l.32-590.95c.02-30.36-24.07-54.99-53.8-55Z"/>
            <path class="cls-42" d="M326,8.67l-251.21-.13c-29.64-.02-53.67,24.54-53.69,54.84l-.33,589.62c-.02,30.3,23.96,54.88,53.6,54.9,66.44.04,184.85.1,251.29.14,29.64.02,53.64-24.54,53.66-54.84l.31-589.63c.02-30.3-24-54.88-53.64-54.9Z"/>
            <path class="cls-56" d="M325.4,8.94l-250.13-.13c-29.54-.02-53.51,24.49-53.52,54.73l-.33,588.3c-.02,30.24,23.88,54.78,53.43,54.79,66.23.04,183.98.1,250.21.14,29.54.02,53.47-24.49,53.49-54.73l.31-588.31c.02-30.25-23.92-54.78-53.47-54.79Z"/>
            <path class="cls-54" d="M324.8,9.21l-249.05-.13c-29.45-.02-53.34,24.44-53.35,54.63l-.33,586.98c-.02,30.19,23.81,54.67,53.26,54.69,66.02.04,183.11.1,249.13.14,29.45.02,53.31-24.44,53.32-54.63l.31-586.99c.02-30.19-23.85-54.67-53.3-54.69Z"/>
            <path class="cls-55" d="M324.2,9.47l-247.97-.13c-29.36-.02-53.17,24.39-53.19,54.52l-.32,585.67c-.02,30.13,23.73,54.57,53.09,54.58,65.81.04,182.24.1,248.05.14,29.36.02,53.14-24.39,53.15-54.52l.31-585.68c.02-30.13-23.77-54.57-53.13-54.58Z"/>
            <path class="cls-6" d="M323.6,9.74l-246.89-.13c-29.26-.02-53,24.35-53.02,54.42l-.32,584.35c-.02,30.07,23.66,54.46,52.93,54.48,65.6.04,181.37.1,246.97.14,29.27.02,52.97-24.35,52.99-54.42l.31-584.36c.02-30.07-23.7-54.46-52.96-54.48Z"/>
            <path class="cls-1" d="M323,10.01l-245.81-.13c-29.17-.02-52.83,24.3-52.85,54.31l-.32,583.03c-.02,30.01,23.58,54.36,52.76,54.37,65.4.04,180.5.1,245.9.14,29.17.02,52.8-24.3,52.82-54.31l.31-583.04c.02-30.01-23.62-54.36-52.8-54.37Z"/>
            <path class="cls-5" d="M322.4,10.27l-244.73-.13c-29.08-.02-52.67,24.25-52.68,54.21l-.32,581.71c-.02,29.96,23.51,54.25,52.59,54.27,65.19.04,179.63.1,244.82.14,29.08.02,52.63-24.25,52.65-54.21l.31-581.72c.02-29.96-23.55-54.25-52.63-54.27Z"/>
            <path class="cls-11" d="M321.81,10.54l-243.66-.13c-28.99-.02-52.5,24.21-52.51,54.1l-.32,580.39c-.02,29.9,23.43,54.15,52.42,54.16,64.98.04,178.76.1,243.74.14,28.99.02,52.47-24.21,52.48-54.1l.31-580.4c.02-29.9-23.47-54.15-52.46-54.16Z"/>
            <path class="cls-8" d="M321.21,10.81l-242.58-.13c-28.89-.02-52.33,24.16-52.35,54l-.32,579.07c-.02,29.84,23.36,54.04,52.26,54.06,64.77.04,177.89.1,242.66.14,28.9.02,52.3-24.16,52.31-54l.31-579.08c.02-29.84-23.4-54.04-52.29-54.06Z"/>
            <path class="cls-20" d="M320.61,11.07l-241.5-.13c-28.8-.02-52.16,24.11-52.18,53.89l-.32,577.76c-.02,29.78,23.28,53.94,52.09,53.95,64.56.04,177.02.1,241.58.14,28.8.02,52.13-24.11,52.15-53.89l.31-577.76c.02-29.78-23.32-53.94-52.12-53.95Z"/>
            <path class="cls-17" d="M320.01,11.34l-240.42-.13c-28.71-.02-51.99,24.07-52.01,53.79l-.32,576.44c-.02,29.72,23.21,53.83,51.92,53.85,64.36.04,176.15.1,240.5.14,28.71.02,51.96-24.07,51.98-53.79l.3-576.45c.02-29.72-23.25-53.83-51.96-53.85Z"/>
            <path class="cls-21" d="M319.41,11.61l-239.34-.13c-28.62-.02-51.83,24.02-51.84,53.68l-.32,575.12c-.02,29.67,23.13,53.73,51.75,53.74,64.15.04,175.28.1,239.42.14,28.62.02,51.79-24.02,51.81-53.69l.3-575.13c.02-29.67-23.17-53.73-51.79-53.74Z"/>
            <path class="cls-16" d="M318.81,11.87l-238.26-.13c-28.52-.02-51.66,23.97-51.67,53.58l-.32,573.8c-.02,29.61,23.06,53.62,51.58,53.64,63.94.04,174.4.1,238.34.14,28.52.02,51.63-23.97,51.64-53.58l.3-573.81c.02-29.61-23.1-53.62-51.62-53.64Z"/>
            <path class="cls-26" d="M318.21,12.14l-237.19-.13c-28.43-.02-51.49,23.93-51.51,53.47l-.31,572.48c-.02,29.55,22.98,53.52,51.42,53.53,63.73.04,173.53.1,237.27.14,28.43.02,51.46-23.93,51.47-53.48l.3-572.49c.02-29.55-23.02-53.52-51.45-53.53Z"/>
            <path class="cls-22" d="M317.62,12.41l-236.11-.13c-28.34-.02-51.32,23.88-51.34,53.37l-.31,571.16c-.02,29.49,22.91,53.41,51.25,53.43,63.52.04,172.66.1,236.19.14,28.34.02,51.29-23.88,51.31-53.37l.3-571.17c.01-29.49-22.95-53.41-51.28-53.43Z"/>
            <path class="cls-23" d="M317.02,12.68l-235.03-.13c-28.24-.02-51.15,23.83-51.17,53.26l-.31,569.84c-.02,29.43,22.83,53.31,51.08,53.32,63.32.04,171.79.1,235.11.14,28.25.02,51.12-23.83,51.14-53.27l.3-569.85c.01-29.43-22.87-53.31-51.12-53.32Z"/>
            <path class="cls-32" d="M316.42,12.94l-233.95-.13c-28.15-.02-50.99,23.78-51,53.16l-.31,568.53c-.02,29.38,22.76,53.2,50.91,53.22,63.11.04,170.92.1,234.03.14,28.15.02,50.95-23.78,50.97-53.16l.3-568.54c.01-29.38-22.8-53.2-50.95-53.22Z"/>
            <path class="cls-31" d="M315.82,13.21l-232.87-.13c-28.06-.02-50.82,23.74-50.83,53.05l-.31,567.21c-.02,29.32,22.68,53.1,50.74,53.11,62.9.04,170.05.1,232.95.14,28.06.02,50.79-23.74,50.8-53.06l.3-567.22c.01-29.32-22.72-53.1-50.78-53.11Z"/>
            <path class="cls-27" d="M315.22,13.48l-231.79-.13c-27.97-.02-50.65,23.69-50.67,52.95l-.31,565.89c-.02,29.26,22.61,52.99,50.58,53.01,62.69.04,169.18.1,231.87.14,27.97.02,50.62-23.69,50.63-52.95l.3-565.9c.01-29.26-22.64-52.99-50.61-53.01Z"/>
            <path class="cls-48" d="M314.62,13.74l-230.71-.13c-27.87-.02-50.48,23.64-50.5,52.84l-.31,564.57c-.02,29.2,22.53,52.89,50.41,52.9,62.48.04,168.31.1,230.79.14,27.87.02,50.45-23.64,50.47-52.85l.3-564.58c.01-29.2-22.57-52.89-50.44-52.9Z"/>
          </g>
          <g>
            <path class="cls-50" d="M8.52,191.13l.02-51.66c0-1.95,1.58-3.52,3.52-3.52h1.39c.64,0,1.15.52,1.15,1.15v56.38c0,.65-.53,1.17-1.17,1.17h-1.39c-1.95,0-3.52-1.58-3.52-3.53Z"/>
            <path class="cls-50" d="M8.52,262.95l.02-51.66c0-1.95,1.58-3.52,3.52-3.52h1.39c.64,0,1.15.52,1.15,1.15v56.38c0,.65-.53,1.17-1.17,1.17h-1.39c-1.95,0-3.52-1.58-3.52-3.53Z"/>
            <path class="cls-50" d="M317.3.13H66.94C36.7.11,12.17,24.49,12.15,54.74v594.27c-.02,30.25,24.12,54.92,54.37,54.94,67.8.04,182.64-.04,250.44,0,30.25.02,55.07-24.49,55.08-54.74V54.93c.02-30.25-24.49-54.78-54.74-54.8Z"/>
            <path class="cls-49" d="M210.33,19.67l-36.47-.03c-1.29,0-2.33-1.05-2.33-2.33h0c0-1.29,1.04-2.33,2.33-2.33l36.47.03c1.29,0,2.33,1.04,2.33,2.33h0c0,1.29-1.04,2.33-2.33,2.33Z"/>
            <path class="cls-50" d="M375.33,151.97c0-1.95-1.57-3.52-3.52-3.53h-1.39c-.65,0-1.17.53-1.17,1.17v34.28s-.02.03-.02.05v56.4c-.01.64.5,1.15,1.14,1.15h1.38c1.95,0,3.53-1.57,3.53-3.52l.05-86.01Z"/>
            <path class="cls-49" d="M233.75,688.41l-83.31-.03c-1.29,0-2.33-1.05-2.33-2.33h0c0-1.29,1.04-2.33,2.33-2.33l83.31.03c1.29,0,2.33,1.04,2.33,2.33h0c0,1.29-1.04,2.33-2.33,2.33Z"/>
            <path class="cls-29" d="M304.31,38.72c0-1.72-1.4-3.12-3.12-3.12-1.72,0-3.12,1.4-3.12,3.12,0,1.72,1.4,3.12,3.12,3.12,1.72,0,3.12-1.4,3.13-3.12Z"/>
            <path class="cls-29" d="M316.08,38.73c0-1.72-1.4-3.12-3.12-3.12-1.72,0-3.12,1.4-3.12,3.12,0,1.72,1.4,3.12,3.12,3.12s3.12-1.4,3.12-3.12Z"/>
            <path class="cls-29" d="M292.54,38.72c0-1.72-1.4-3.12-3.12-3.12-1.72,0-3.12,1.4-3.12,3.12,0,1.72,1.4,3.12,3.12,3.12,1.72,0,3.12-1.4,3.13-3.12Z"/>
            <path class="cls-49" d="M323.64,35.14h8.97v7.18h-8.97c-.15,0-.27-.12-.27-.27v-6.64c0-.15.12-.27.27-.27Z"/>
            <path class="cls-49" d="M337.88,36.55h-.56s-.05-.02-.05-.05v-.18c0-.96-.78-1.74-1.74-1.74h-11.14c-.96,0-1.74.78-1.74,1.74v4.82c0,.96.78,1.74,1.74,1.74h11.14c.96,0,1.74-.78,1.74-1.74v-.18s.02-.05.05-.05h.56c.47,0,.85-.38.85-.85v-2.66c0-.47-.38-.85-.85-.85ZM337.63,39.97h-.76c-.29,0-.53.24-.53.53v.41c0,.67-.36,1.03-.8,1.03h-11.15c-.44,0-.8-.36-.8-.8v-4.81c0-.44.36-.8.8-.8h11.15c.44,0,.8.36.8.8v.64c0,.29.24.53.53.53h.76c.09,0,.16.07.16.16v2.16c0,.09-.07.16-.16.16Z"/>
            <text class="cls-59" transform="translate(162.3 40.02)"><tspan x="0" y="0">Segu</tspan><tspan class="cls-58" x="19.17" y="0">r</tspan><tspan x="22.09" y="0">os Bolí</tspan><tspan class="cls-57" x="47.85" y="0">v</tspan><tspan x="52.03" y="0">ar</tspan></text>
            <text class="cls-60" transform="translate(43.78 43.72)"><tspan x="0" y="0">09:16</tspan></text>
          </g>
          <path class="cls-19" d="M310.53,8.13l-236.51-.13c-28.57-.02-51.75,24.24-51.77,54.17l-.32,578.75c-.02,29.94,23.1,54.22,51.68,54.23,64.05.04,172.54.1,236.59.14,28.57.02,51.72-24.24,51.73-54.17l.3-578.76c.02-29.94-23.14-54.22-51.71-54.23Z"/>
        </g>
      </g>
    </g>
  </g>
</svg>